<svg id="Calque_1" data-name="Calque 1" xmlns="http://www.w3.org/2000/svg" xmlns:xlink="http://www.w3.org/1999/xlink" viewBox="0 0 2272.73 1999.44"><defs><style>.cls-1{fill:#fff;}.cls-2{mask:url(#mask);}.cls-10,.cls-3{fill:none;stroke-miterlimit:10;}.cls-3{stroke:#ee5c36;}.cls-4,.cls-5{fill:#ee5c36;}.cls-10,.cls-11,.cls-14,.cls-19,.cls-20,.cls-5,.cls-6,.cls-8{fill-rule:evenodd;}.cls-12,.cls-6{fill:#eae8e4;}.cls-11,.cls-7{fill:#f9eb00;}.cls-16,.cls-8{fill:#0a4edc;}.cls-9{mask:url(#mask-7);}.cls-10{stroke:#2a3e4c;}.cls-13{fill:#28203d;}.cls-14,.cls-18{fill:#bfcbba;}.cls-15{fill:#849c9b;}.cls-17,.cls-20{fill:#dc4618;}.cls-19{fill:#008718;}</style><mask id="mask" x="-118.5" y="261.89" width="2425.41" height="1819.06" maskUnits="userSpaceOnUse"><g transform="translate(294.83 415.99)"><g id="mask-2"><rect id="path-1" class="cls-1" x="-413.33" y="-154.11" width="2425.41" height="1819.06"/></g></g></mask><mask id="mask-7" x="-118.5" y="0" width="2425.41" height="2080.95" maskUnits="userSpaceOnUse"><g transform="translate(294.83 415.99)"><g id="mask-2-8" data-name="mask-2"><rect id="path-1-7" data-name="path-1" class="cls-1" x="-413.33" y="-154.11" width="2425.41" height="1819.06"/></g></g></mask></defs><title>traits</title><g class="cls-2"><circle class="cls-3" cx="563.65" cy="889.46" r="377.45"/></g><g class="cls-2"><rect class="cls-4" x="1000.78" y="242.76" width="891.69" height="121.51" transform="translate(337.57 1182.07) rotate(-30.09)"/></g><g class="cls-2"><polygon class="cls-5" points="1205.2 1620.62 893.07 1236.38 817.84 1286.34 1130.16 1680.43 1205.2 1620.62"/></g><g class="cls-2"><polygon class="cls-6" points="141.06 1752.44 509.7 1483.12 475.84 1434.38 102.17 1676.05 141.06 1752.44"/></g><g class="cls-2"><rect class="cls-7" x="548.1" y="1092.25" width="38.22" height="246.64" transform="translate(-286.77 939.04) rotate(-33.9)"/></g><g class="cls-2"><polygon class="cls-8" points="1134.54 1310.88 991.15 1136.27 930.09 1171.42 1069.82 1362.27 1134.54 1310.88"/></g><g class="cls-9"><polygon class="cls-10" points="2144.02 0.68 656.89 1040.91 730.21 1136.72 2271.99 159.61 2144.02 0.68"/></g><g class="cls-2"><polygon class="cls-11" points="750.67 1155.32 1265.28 873.9 1302.34 940.65 793.87 1219.31 750.67 1155.32"/></g><g class="cls-2"><rect class="cls-12" x="-283.53" y="1330.6" width="576.51" height="76.35" transform="translate(-584.66 739.9) rotate(-40.04)"/></g><g class="cls-2"><polygon class="cls-11" points="360.29 1640.57 544.3 1493.62 579.27 1532.11 395.27 1679.06 360.29 1640.57"/></g><g class="cls-2"><polygon class="cls-13" points="1573.74 948 2084.14 667.78 2103.76 706.15 1593.36 986.37 1573.74 948"/></g><g class="cls-2"><polygon class="cls-14" points="1617.23 627.35 2110.31 330.07 2132.56 366.97 1639.48 664.25 1617.23 627.35"/></g><g class="cls-2"><rect class="cls-15" x="1169.18" y="519.19" width="575.89" height="10.89" transform="translate(215.76 1136.99) rotate(-27.09)"/></g><g class="cls-2"><rect class="cls-13" x="366.73" y="36.64" width="32.42" height="1437.02" transform="translate(-91.75 817.97) rotate(-38.46)"/></g><g class="cls-2"><polygon class="cls-10" points="828.41 1433.78 227.53 705.08 133.45 766.32 724.75 1511.6 828.41 1433.78"/></g><g class="cls-2"><ellipse class="cls-7" cx="1090.86" cy="940.55" rx="59.51" ry="59.19" transform="translate(105.53 696.38) rotate(-13.49)"/></g><g class="cls-2"><ellipse class="cls-16" cx="-153.88" cy="884.08" rx="107.17" ry="106.6" transform="translate(84.38 404.48) rotate(-13.49)"/></g><g class="cls-2"><ellipse class="cls-17" cx="323.29" cy="487" rx="46.63" ry="46.38" transform="translate(190.16 504.82) rotate(-13.49)"/></g><g class="cls-2"><ellipse class="cls-18" cx="70.09" cy="940.75" rx="46.4" ry="46.15" transform="translate(77.33 458.29) rotate(-13.49)"/></g><g class="cls-2"><polygon class="cls-13" points="651.76 997.34 1075.92 704.46 1072.32 699.26 648.17 992.13 651.76 997.34"/></g><g class="cls-2"><polygon class="cls-13" points="1511.59 1643.73 1730.96 1900.92 1739.03 1894.04 1519.66 1636.84 1511.59 1643.73"/></g><g class="cls-2"><polygon class="cls-13" points="130.67 368.93 350.16 643.01 355.1 639.06 135.61 364.97 130.67 368.93"/></g><g class="cls-2"><polygon class="cls-13" points="278.84 1695.61 0 1921.08 3.98 1926 282.82 1700.53 278.84 1695.61"/></g><g class="cls-2"><polygon class="cls-19" points="1707.52 1420.94 1648.71 1353.29 1653.97 1348.72 1712.78 1416.37 1780.44 1357.56 1785.01 1362.82 1717.36 1421.63 1776.17 1489.29 1770.91 1493.86 1712.1 1426.2 1644.44 1485.01 1639.87 1479.76 1707.52 1420.94"/></g><g class="cls-2"><path class="cls-20" d="M-155.69,877.47-186,842.64l2.71-2.36L-153,875.12l34.84-30.29,2.36,2.71-34.84,30.29,30.28,34.84L-123,915l-30.28-34.84-34.84,30.29-2.36-2.71Z" transform="translate(294.83 415.99)"/></g></svg>